<?xml version="1.0" encoding="UTF-8" standalone="no"?>
<!DOCTYPE svg PUBLIC "-//W3C//DTD SVG 1.1//EN" "http://www.w3.org/Graphics/SVG/1.1/DTD/svg11.dtd">
<svg width="100%" height="100%" viewBox="0 0 512 512" version="1.1" xmlns="http://www.w3.org/2000/svg" xmlns:xlink="http://www.w3.org/1999/xlink" xml:space="preserve" xmlns:serif="http://www.serif.com/" style="fill-rule:evenodd;clip-rule:evenodd;stroke-linecap:round;stroke-linejoin:round;stroke-miterlimit:1.5;">
    <g id="Green-machine" serif:id="Green machine" transform="matrix(1,0,0,1,30,0)">
        <g id="Body" transform="matrix(2.60317,0,0,2.60317,-424.734,-361.56)">
            <path d="M178.83,157.842L230.294,138.892L320.751,150.087L278.334,169.644L178.83,157.842Z" style="fill:rgb(5,32,25);"/>
            <path d="M178.83,157.842L230.294,138.892L320.751,150.087" style="fill:none;stroke:black;stroke-width:0.38px;"/>
            <g transform="matrix(1.02291,0.00275798,0.00275798,1.00033,-6.82938,-0.822274)">
                <path d="M180.91,158.093L278.32,169.642" style="fill:none;stroke:black;stroke-width:0.38px;"/>
            </g>
            <path d="M278.334,169.644L320.751,150.087" style="fill:none;"/>
            <path d="M320.927,150.006C320.83,150.065 320.852,150.241 320.754,150.3C320.726,150.317 310.189,155.529 303.325,158.697C295.645,162.241 278.417,169.818 278.414,169.818C278.324,169.808 278.197,169.806 278.159,169.724C278.121,169.642 278.173,169.511 278.253,169.469C278.305,169.442 295.227,161.276 302.888,157.748C309.754,154.586 320.56,149.957 320.591,149.947C320.699,149.911 320.819,150.042 320.927,150.006Z"/>
            <path d="M278.334,169.644L320.751,150.087L321.667,307.778L280.375,335.576L278.334,169.644Z" style="fill:rgb(5,32,25);"/>
            <g transform="matrix(0.999996,-0.000675822,-0.000675822,0.886118,0.102937,17.3458)">
                <path d="M320.75,150.046L321.787,328.003" style="fill:none;stroke:black;stroke-width:0.41px;"/>
            </g>
            <path d="M280.651,335.576L321.667,307.778" style="fill:none;"/>
            <path d="M321.826,307.67C321.695,307.761 321.702,307.984 321.571,308.075C318.905,309.918 318.867,309.861 288.037,330.795C284.411,333.257 284.386,333.22 280.86,335.823C280.851,335.83 280.844,335.845 280.832,335.844C280.682,335.823 280.535,335.778 280.384,335.757C280.504,335.651 280.379,335.397 280.5,335.29C280.726,335.09 280.786,335.181 283.69,333.276C284.87,332.503 303.736,319.71 305.478,318.528C310.771,314.939 316.028,311.296 321.355,307.758C321.488,307.669 321.693,307.759 321.826,307.67Z"/>
            <g id="Front">
                <g id="Body-fill" serif:id="Body fill" transform="matrix(0.999931,0,-6.93889e-18,0.997229,0.0193547,0.929928)">
                    <path d="M278.333,169.183L280.375,335.576L193.072,314.27L178.519,157.4" style="fill:white;"/>
                </g>
                <path d="M180.921,183.632L278.334,196.799" style="fill:none;stroke:rgb(131,134,115);stroke-width:0.32px;"/>
                <g transform="matrix(0.929526,-0.01143,-0.01143,0.998146,23.5955,119.106)">
                    <path d="M182.529,178.273L278.701,199.49" style="fill:none;stroke:rgb(131,134,115);stroke-width:0.34px;"/>
                </g>
                <g transform="matrix(1.04611,0.0645387,-0.0587071,0.951583,-1.69911,-7.08277)">
                    <path d="M271.381,171.913L272.108,186.256C272.108,186.8 271.706,187.242 271.211,187.242L244.721,185.664C244.226,185.664 243.824,185.222 243.824,184.678L242.772,170.117C242.772,169.573 243.174,169.131 243.669,169.131L270.485,170.927C270.98,170.927 271.381,171.369 271.381,171.913Z" style="fill:none;stroke:rgb(5,32,25);stroke-width:0.32px;"/>
                </g>
                <g transform="matrix(1.04611,0.0645387,-0.0587071,0.951583,-62.499,-15.4242)">
                    <path d="M295.967,173.096L297.617,190.583C297.617,191.127 297.215,191.569 296.72,191.569L246.045,187.725C245.55,187.725 245.148,187.283 245.148,186.739L242.772,170.117C242.772,169.573 243.174,169.131 243.669,169.131L295.07,172.11C295.565,172.11 295.967,172.552 295.967,173.096Z" style="fill:none;stroke:rgb(5,32,25);stroke-width:0.32px;"/>
                </g>
                <g transform="matrix(0.999931,0,-6.93889e-18,0.997229,0.0193547,0.929928)">
                    <path d="M280.225,335.388L278.956,265.556C278.769,254.109 278.815,254.11 278.738,242.663L278.341,179.355C278.31,175.965 278.145,172.576 278.141,169.185C278.141,169.094 278.331,169.081 278.331,168.99L280.006,258.569C280.057,261.678 280.268,291.383 280.331,297.164C280.735,334.263 280.974,334.273 280.762,335.636C280.727,335.859 280.503,336.01 280.283,335.956C273.296,334.246 193.027,314.592 192.952,314.561C192.849,314.517 192.771,314.413 192.76,314.299L178.501,157.207L193.364,314.017L280.225,335.388Z"/>
                </g>
            </g>
        </g>
        <g id="Door" transform="matrix(2.60317,0,0,2.60317,-424.734,-361.56)">
            <g id="Door-face" serif:id="Door face" transform="matrix(1,0,0,1,-15.3556,-6.57031)">
                <path d="M237.241,224.444C256.885,226.24 272.028,245.012 274.35,261.403C276.872,279.212 267.734,296.512 244.071,294.239C224.531,292.362 205.313,275.441 205.313,255.811C205.313,242.952 211.211,232.765 220.392,227.736C225.226,225.088 230.969,223.87 237.241,224.444Z" style="fill:none;"/>
                <clipPath id="_clip1">
                    <path d="M237.241,224.444C256.885,226.24 272.028,245.012 274.35,261.403C276.872,279.212 267.734,296.512 244.071,294.239C224.531,292.362 205.313,275.441 205.313,255.811C205.313,242.952 211.211,232.765 220.392,227.736C225.226,225.088 230.969,223.87 237.241,224.444Z"/>
                </clipPath>
                <g clip-path="url(#_clip1)">
                    <g id="Door-face1" serif:id="Door face" transform="matrix(0.774204,0,0,0.774204,54.1373,59.2921)">
                        <path d="M237.264,224.197C239.414,224.374 251.092,225.119 262.194,236.611C264.802,239.311 273.571,249.058 275.013,262.812C276.923,281.026 266.677,297.141 243.568,294.609C224.15,292.482 204.81,275.588 204.985,255.508C205.069,245.907 208.424,237.805 213.957,232.232C223.556,222.564 235.837,224.082 237.264,224.197ZM237.219,224.691C236.035,224.6 223.064,222.965 213.533,233.526C205.874,242.013 204.745,253.863 206.179,261.41C209.383,278.285 226.793,292.731 245.469,293.929C268.801,295.426 276.502,277.252 273.75,260.713C272.468,253.012 268.284,244.464 261.616,237.476C250.636,225.97 239.252,224.924 237.219,224.691Z" style="fill:rgb(131,134,115);"/>
                    </g>
                    <g transform="matrix(1,0,0,1,15.3556,6.57031)">
                        <path d="M266.064,246.406L266.276,269.925L259.703,269.73" style="fill:none;stroke:rgb(5,32,25);stroke-width:0.32px;"/>
                    </g>
                </g>
                <path d="M237.259,224.252C239.537,224.449 249.903,225.224 260.339,234.948C266.717,240.891 273.586,250.859 274.881,262.613C276.858,280.543 267.022,296.935 243.809,294.54C224.352,292.531 204.891,275.623 205.06,255.508C205.15,244.713 209.384,235.819 216.2,230.291C225.067,223.099 235.09,224.065 237.259,224.252ZM237.224,224.635C235.623,224.501 223.506,223.123 214.152,232.768C205.874,241.303 204.765,253.46 205.985,260.761C208.864,277.987 226.422,292.566 244.922,293.986C268.502,295.796 276.595,277.766 273.89,260.886C271.307,244.77 256.422,226.761 237.452,224.66C237.376,224.651 237.3,224.643 237.224,224.635Z" style="fill:rgb(5,32,25);"/>
            </g>
            <g id="Door-back" serif:id="Door back">
                <path d="M266.277,270.085C266.25,269.981 266.143,269.91 266.116,269.805C266.108,269.775 266.014,266.536 266.002,264.674C265.977,260.832 265.97,245.882 265.971,245.88C266.01,245.815 266.091,245.784 266.13,245.719C266.135,245.822 266.287,245.88 266.292,245.983C266.292,245.99 266.493,262.909 266.489,265.507C266.487,266.995 266.443,269.773 266.436,269.804C266.41,269.908 266.303,269.98 266.277,270.085Z" style="fill:rgb(131,134,115);"/>
                <path d="M199.498,225.083C199.458,225.014 199.406,224.953 199.366,224.884C199.357,224.869 199.388,224.8 199.393,224.786C200.069,222.92 214.711,211.229 231.864,215.517C241.763,217.991 249.014,224.548 254.475,231.579C254.55,231.676 254.462,231.682 254.446,231.804C254.381,231.766 254.287,231.813 254.222,231.775C254.088,231.696 250.105,225.938 243.75,221.364C239.608,218.383 231.8,213.851 220.531,215.141C208.688,216.497 200.027,223.718 199.688,224.915C199.685,224.923 199.688,224.933 199.682,224.939C199.594,225.016 199.587,225.004 199.498,225.083Z" style="fill:rgb(5,32,25);"/>
                <path d="M270.517,244.477C265.398,244.69 262.625,243.699 261.772,243.404C260.153,242.844 259.51,241.633 258.277,238.911C256.461,234.9 254.233,231.838 254.216,231.767C254.198,231.694 254.276,231.618 254.259,231.545C254.321,231.588 254.42,231.544 254.481,231.588C254.525,231.619 255.294,232.816 255.363,232.924C258.663,238.062 258.948,240.219 260.307,241.948C260.936,242.749 261.4,242.96 263.07,243.441C266.32,244.376 270.697,244.118 270.733,244.128C270.807,244.148 270.86,244.218 270.86,244.294C270.878,248.439 270.826,248.438 270.915,257.453C271.026,268.693 271.103,268.71 271.015,268.873C270.944,269.007 270.895,268.953 266.512,270.032C266.314,270.08 266.315,270.08 266.314,270.08C266.2,270.06 266.236,269.983 266.121,269.963L270.739,268.688C270.666,256.561 270.707,256.521 270.517,244.477Z" style="fill:rgb(5,32,25);"/>
                <g transform="matrix(1,0,0,1,0.0935,-0.6475)">
                    <path d="M257.441,245.01C257.527,245.013 257.582,244.884 257.668,244.888C257.994,244.9 264.167,246.179 264.995,246.272C265.525,246.332 265.525,246.326 266.058,246.369C266.185,246.379 266.12,246.453 266.195,246.554C266.118,246.551 266.079,246.685 266.003,246.682C265.926,246.679 265.334,246.444 264.079,246.238C263.846,246.2 257.814,245.268 257.613,245.203C257.531,245.177 257.523,245.036 257.441,245.01Z" style="fill:rgb(131,134,115);"/>
                </g>
                <path d="M266.276,269.925L257.692,269.925" style="fill:none;stroke:rgb(5,32,25);stroke-width:0.32px;"/>
            </g>
        </g>
    </g>
</svg>
