<?xml version="1.0" encoding="UTF-8" standalone="no"?>
<!DOCTYPE svg PUBLIC "-//W3C//DTD SVG 1.1//EN" "http://www.w3.org/Graphics/SVG/1.1/DTD/svg11.dtd">
<svg width="100%" height="100%" viewBox="0 0 688 606" version="1.1" xmlns="http://www.w3.org/2000/svg" xmlns:xlink="http://www.w3.org/1999/xlink" xml:space="preserve" xmlns:serif="http://www.serif.com/" style="fill-rule:evenodd;clip-rule:evenodd;stroke-linecap:round;stroke-linejoin:round;stroke-miterlimit:1.5;">
    <g id="Layer1">
        <g transform="matrix(1,0,0,1,-12.4267,-0.855523)">
            <path d="M356.546,263.186C370.124,220.594 404.354,190.053 404.354,190.053C473.376,152.776 571.964,116.706 615.241,53.945" style="fill:none;stroke:black;stroke-width:10.67px;"/>
        </g>
        <g transform="matrix(1,0,0,1,-12.4267,-0.855523)">
            <path d="M556.724,180.95C616.666,159.562 620.004,100.059 616.136,53.934" style="fill:none;stroke:black;stroke-width:10.67px;"/>
        </g>
        <g transform="matrix(1,0,0,1,-12.4267,-0.855523)">
            <path d="M558.439,181.697C571.845,183.989 597.945,187.22 614.262,169.694" style="fill:none;stroke:black;stroke-width:10.67px;"/>
        </g>
        <g transform="matrix(1,0,0,1,-12.4267,-0.855523)">
            <path d="M527.386,268.601C587.748,274.748 606.087,195.46 614.262,169.694" style="fill:none;stroke:black;stroke-width:10.67px;"/>
        </g>
        <g transform="matrix(1,0,0,1,-12.4267,-0.855523)">
            <path d="M527.386,268.601C527.386,268.601 565.229,283.066 580.421,275.946" style="fill:none;stroke:black;stroke-width:10.67px;"/>
        </g>
        <g transform="matrix(1,0,0,1,-12.4267,-0.855523)">
            <path d="M462.454,329.431C497.197,334.187 551.297,316.424 580.421,275.116" style="fill:none;stroke:black;stroke-width:10.67px;"/>
        </g>
        <g transform="matrix(1,0,0,1,-12.4267,-0.855523)">
            <path d="M462.454,329.431C470.603,337.152 485.756,346.65 494.383,348.698" style="fill:none;stroke:black;stroke-width:10.67px;"/>
        </g>
        <g transform="matrix(1,0,0,1,-12.4267,-0.855523)">
            <path d="M411.155,355.339C411.155,355.339 458.974,385.46 495.776,351.25" style="fill:none;stroke:black;stroke-width:10.67px;"/>
        </g>
        <g transform="matrix(1,0,0,1,-12.4267,-0.855523)">
            <path d="M411.401,353.907C416.752,379.823 415.993,413.538 455.972,446.072" style="fill:none;stroke:black;stroke-width:10.67px;"/>
        </g>
        <g transform="matrix(1,0,0,1,-12.4267,-0.855523)">
            <path d="M396.908,416.241C396.908,416.241 425.05,460.191 458.394,445.571" style="fill:none;stroke:black;stroke-width:10.67px;"/>
        </g>
        <g transform="matrix(1,0,0,1,-12.4267,-0.855523)">
            <path d="M393.939,413.594C393.939,413.594 402.037,482.368 424.793,501.188" style="fill:none;stroke:black;stroke-width:10.67px;"/>
        </g>
        <g transform="matrix(1,0,0,1,-12.4267,-0.855523)">
            <path d="M374.284,470.073C374.284,470.073 400.747,512.473 424.981,500.517" style="fill:none;stroke:black;stroke-width:10.67px;"/>
        </g>
        <g transform="matrix(1,0,0,1,-12.4267,-0.855523)">
            <path d="M373.947,470.2C378.743,491.853 371.308,520.926 356.648,553.777" style="fill:none;stroke:black;stroke-width:10.67px;"/>
        </g>
        <g transform="matrix(-1,0,0,1,701.361,-0.855523)">
            <path d="M356.546,263.186C370.124,220.594 404.354,190.053 404.354,190.053C473.376,152.776 571.964,116.706 615.241,53.945" style="fill:none;stroke:black;stroke-width:10.67px;"/>
        </g>
        <g transform="matrix(-1,0,0,1,701.361,-0.855523)">
            <path d="M556.724,180.95C616.666,159.562 620.004,100.059 616.136,53.934" style="fill:none;stroke:black;stroke-width:10.67px;"/>
        </g>
        <g transform="matrix(-1,0,0,1,701.361,-0.855523)">
            <path d="M558.439,181.697C571.845,183.989 597.945,187.22 614.262,169.694" style="fill:none;stroke:black;stroke-width:10.67px;"/>
        </g>
        <g transform="matrix(-1,0,0,1,701.361,-0.855523)">
            <path d="M527.386,268.601C587.748,274.748 608.063,195.46 616.237,169.694" style="fill:none;stroke:black;stroke-width:10.67px;"/>
        </g>
        <g transform="matrix(-1,0,0,1,701.361,-0.855523)">
            <path d="M527.386,268.601C527.386,268.601 565.229,283.066 580.421,275.946" style="fill:none;stroke:black;stroke-width:10.67px;"/>
        </g>
        <g transform="matrix(-1,0,0,1,701.361,-0.855523)">
            <path d="M465.176,331.888C499.919,336.645 551.297,319.224 580.421,277.916" style="fill:none;stroke:black;stroke-width:10.67px;"/>
        </g>
        <g transform="matrix(-1,0,0,1,701.361,-0.855523)">
            <path d="M462.454,329.431C470.603,337.152 485.756,346.65 494.383,348.698" style="fill:none;stroke:black;stroke-width:10.67px;"/>
        </g>
        <g transform="matrix(-1,0,0,1,701.361,-0.855523)">
            <path d="M411.155,355.339C411.155,355.339 458.974,385.46 495.776,351.25" style="fill:none;stroke:black;stroke-width:10.67px;"/>
        </g>
        <g transform="matrix(-1,0,0,1,701.361,-0.855523)">
            <path d="M411.401,353.907C416.752,379.823 415.993,413.538 455.972,446.072" style="fill:none;stroke:black;stroke-width:10.67px;"/>
        </g>
        <g transform="matrix(-1,0,0,1,701.361,-0.855523)">
            <path d="M396.908,416.241C396.908,416.241 425.05,460.191 458.394,445.571" style="fill:none;stroke:black;stroke-width:10.67px;"/>
        </g>
        <g transform="matrix(-1,0,0,1,701.361,-0.855523)">
            <path d="M393.939,413.594C393.939,413.594 402.037,482.368 424.793,501.188" style="fill:none;stroke:black;stroke-width:10.67px;"/>
        </g>
        <g transform="matrix(-1,0,0,1,701.361,-0.855523)">
            <path d="M374.284,470.073C374.284,470.073 400.747,512.473 424.981,500.517" style="fill:none;stroke:black;stroke-width:10.67px;"/>
        </g>
        <g transform="matrix(-1,0,0,1,701.361,-0.855523)">
            <path d="M373.947,470.2C378.743,491.853 371.308,520.926 356.648,553.777" style="fill:none;stroke:black;stroke-width:10.67px;"/>
        </g>
        <g transform="matrix(1.09323,0,0,1.09323,-101.045,-72.8719)">
            <circle cx="404.348" cy="248.095" r="74.254" style="fill:none;stroke:black;stroke-width:9.76px;"/>
        </g>
        <g transform="matrix(0.978837,0,0,0.978837,-8.7021,3.66679)">
            <path d="M394.99,207.148C404.388,207.148 409.836,213.941 409.836,223.339C409.836,232.736 402.207,240.366 392.809,240.366C383.411,240.366 380.045,236.893 380.045,227.495C380.045,225.918 393.413,207.148 394.99,207.148Z" style="stroke:black;stroke-width:13.45px;"/>
        </g>
        <g transform="matrix(-0.978837,0,0,0.978837,694.463,3.66679)">
            <path d="M394.99,207.148C404.388,207.148 409.836,213.941 409.836,223.339C409.836,232.736 402.207,240.366 392.809,240.366C383.411,240.366 380.045,236.893 380.045,227.495C380.045,225.918 393.413,207.148 394.99,207.148Z" style="stroke:black;stroke-width:13.45px;"/>
        </g>
    </g>
</svg>
